<svg width="16" height="16" viewBox="0 0 16 16" fill="none" xmlns="http://www.w3.org/2000/svg">
<path d="M0 8C0 3.58172 3.58172 0 8 0C12.4183 0 16 3.58172 16 8C16 12.4183 12.4183 16 8 16C3.58172 16 0 12.4183 0 8Z" fill="#0350AE"/>
<path d="M7.37655 12.4L8.62322 12.4L8.62322 6.40617L7.37655 6.40617L7.37655 12.4ZM7.99988 3.60001C7.50488 3.60001 7.11988 3.98771 7.11988 4.48617C7.11988 4.98463 7.50488 5.37232 7.99988 5.37232C8.49488 5.37232 8.87988 4.98463 8.87988 4.48617C8.87988 3.98771 8.49488 3.60001 7.99988 3.60001Z" fill="white"/>
</svg>
